<svg xmlns="http://www.w3.org/2000/svg" style="display:none" aria-hidden="true">
  <symbol id="icon-arrow-right" viewBox="0 0 24 24">
      <path d="M5 12h14" />
      <path d="m12 5 7 7-7 7" />
  </symbol>
  <symbol id="icon-arrow-left" viewBox="0 0 24 24">
      <path d="M19 12H5" />
      <path d="m12 19-7-7 7-7" />
  </symbol>
  <symbol id="icon-sparkles" viewBox="0 0 24 24">
      <path d="M9.937 15.5A2 2 0 0 0 8.5 14.063l-6.135-1.582a.5.5 0 0 1 0-.962L8.5 9.936A2 2 0 0 0 9.937 8.5l1.582-6.135a.5.5 0 0 1 .963 0L14.063 8.5A2 2 0 0 0 15.5 9.937l6.135 1.581a.5.5 0 0 1 0 .964L15.5 14.063a2 2 0 0 0-1.437 1.437l-1.582 6.135a.5.5 0 0 1-.963 0z" />
      <path d="M20 3v4" />
      <path d="M22 5h-4" />
      <path d="M4 17v2" />
      <path d="M5 18H3" />
  </symbol>
  <symbol id="icon-move-right" viewBox="0 0 24 24">
      <path d="M18 8L22 12L18 16" />
      <path d="M2 12H22" />
  </symbol>
  <symbol id="icon-map" viewBox="0 0 24 24">
      <path d="M14.106 5.553a2 2 0 0 0 1.788 0l3.659-1.83A1 1 0 0 1 21 4.619v12.764a1 1 0 0 1-.553.894l-4.553 2.277a2 2 0 0 1-1.788 0l-4.212-2.106a2 2 0 0 0-1.788 0l-3.659 1.83A1 1 0 0 1 3 19.381V6.618a1 1 0 0 1 .553-.894l4.553-2.277a2 2 0 0 1 1.788 0z" />
      <path d="M15 5.764v15" />
      <path d="M9 3.236v15" />
  </symbol>
  <symbol id="icon-user" viewBox="0 0 24 24">
      <path d="M19 21v-2a4 4 0 0 0-4-4H9a4 4 0 0 0-4 4v2" />
      <circle cx="12" cy="7" r="4" />
  </symbol>
  <symbol id="icon-phone" viewBox="0 0 24 24">
      <path d="M22 16.92v3a2 2 0 0 1-2.18 2 19.79 19.79 0 0 1-8.63-3.07 19.5 19.5 0 0 1-6-6 19.79 19.79 0 0 1-3.07-8.67A2 2 0 0 1 4.11 2h3a2 2 0 0 1 2 1.72 12.84 12.84 0 0 0 .7 2.81 2 2 0 0 1-.45 2.11L8.09 9.91a16 16 0 0 0 6 6l1.27-1.27a2 2 0 0 1 2.11-.45 12.84 12.84 0 0 0 2.81.7A2 2 0 0 1 22 16.92z" />
  </symbol>
  <symbol id="icon-mail" viewBox="0 0 24 24">
      <rect width="20" height="16" x="2" y="4" rx="2" />
      <path d="m22 7-8.97 5.7a1.94 1.94 0 0 1-2.06 0L2 7" />
  </symbol>
  <symbol id="icon-gem" viewBox="0 0 24 24">
      <path d="M6 3h12l4 6-10 13L2 9Z" />
      <path d="M11 3 8 9l4 13 4-13-3-6" />
      <path d="M2 9h20" />
  </symbol>
  <symbol id="icon-sun" viewBox="0 0 24 24">
      <circle cx="12" cy="12" r="4" />
      <path d="M12 2v2" />
      <path d="M12 20v2" />
      <path d="m4.93 4.93 1.41 1.41" />
      <path d="m17.66 17.66 1.41 1.41" />
      <path d="M2 12h2" />
      <path d="M20 12h2" />
      <path d="m6.34 17.66-1.41 1.41" />
      <path d="m19.07 4.93-1.41 1.41" />
  </symbol>
  <symbol id="icon-trees" viewBox="0 0 24 24">
      <path d="M10 10v.2A3 3 0 0 1 8.9 16H5a3 3 0 0 1-1-5.8V10a3 3 0 0 1 6 0Z" />
      <path d="M7 16v6" />
      <path d="M13 19v3" />
      <path d="M12 19h8.3a1 1 0 0 0 .7-1.7L18 14h.3a1 1 0 0 0 .7-1.7L16 9h.2a1 1 0 0 0 .8-1.7L13 3l-1.4 1.5" />
  </symbol>
  <symbol id="icon-circle-check" viewBox="0 0 24 24">
      <circle cx="12" cy="12" r="10" />
      <path d="m9 12 2 2 4-4" />
  </symbol>
  <symbol id="icon-map-pin" viewBox="0 0 24 24">
      <path d="M20 10c0 4.993-5.539 10.193-7.399 11.799a1 1 0 0 1-1.202 0C9.539 20.193 4 14.993 4 10a8 8 0 0 1 16 0" />
      <circle cx="12" cy="10" r="3" />
  </symbol>
  <symbol id="icon-shield-check" viewBox="0 0 24 24">
      <path d="M20 13c0 5-3.5 7.5-7.66 8.95a1 1 0 0 1-.67-.01C7.5 20.5 4 18 4 13V6a1 1 0 0 1 1-1c2 0 4.5-1.2 6.24-2.72a1.17 1.17 0 0 1 1.52 0C14.51 3.81 17 5 19 5a1 1 0 0 1 1 1z" />
      <path d="m9 12 2 2 4-4" />
  </symbol>
  <symbol id="icon-train-front" viewBox="0 0 24 24">
      <path d="M8 3.1V7a4 4 0 0 0 8 0V3.1" />
      <path d="m9 15-1-1" />
      <path d="m15 15 1-1" />
      <path d="M9 19c-2.8 0-5-2.2-5-5v-4a8 8 0 0 1 16 0v4c0 2.8-2.2 5-5 5Z" />
      <path d="m8 19-2 3" />
      <path d="m16 19 2 3" />
  </symbol>
  <symbol id="icon-graduation-cap" viewBox="0 0 24 24">
      <path d="M21.42 10.922a1 1 0 0 0-.019-1.838L12.83 5.18a2 2 0 0 0-1.66 0L2.6 9.08a1 1 0 0 0 0 1.832l8.57 3.908a2 2 0 0 0 1.66 0z" />
      <path d="M22 10v6" />
      <path d="M6 12.5V16a6 3 0 0 0 12 0v-3.5" />
  </symbol>
  <symbol id="icon-shopping-bag" viewBox="0 0 24 24">
      <path d="M6 2 3 6v14a2 2 0 0 0 2 2h14a2 2 0 0 0 2-2V6l-3-4Z" />
      <path d="M3 6h18" />
      <path d="M16 10a4 4 0 0 1-8 0" />
  </symbol>
  <symbol id="icon-navigation" viewBox="0 0 24 24">
      <polygon points="3 11 22 2 13 21 11 13 3 11" />
  </symbol>
  <symbol id="icon-wifi" viewBox="0 0 24 24">
      <path d="M12 20h.01" />
      <path d="M2 8.82a15 15 0 0 1 20 0" />
      <path d="M5 12.859a10 10 0 0 1 14 0" />
      <path d="M8.5 16.429a5 5 0 0 1 7 0" />
  </symbol>
  <symbol id="icon-plane" viewBox="0 0 24 24">
      <path d="M17.8 19.2 16 11l3.5-3.5C21 6 21.5 4 21 3c-1-.5-3 0-4.5 1.5L13 8 4.8 6.2c-.5-.1-.9.1-1.1.5l-.3.5c-.2.5-.1 1 .3 1.3L9 12l-2 3H4l-1 1 3 2 2 3 1-1v-3l3-2 3.5 5.3c.3.4.8.5 1.3.3l.5-.2c.4-.3.6-.7.5-1.2z" />
  </symbol>
  <symbol id="icon-building-2" viewBox="0 0 24 24">
      <path d="M6 22V4a2 2 0 0 1 2-2h8a2 2 0 0 1 2 2v18Z" />
      <path d="M6 12H4a2 2 0 0 0-2 2v6a2 2 0 0 0 2 2h2" />
      <path d="M18 9h2a2 2 0 0 1 2 2v9a2 2 0 0 1-2 2h-2" />
      <path d="M10 6h4" />
      <path d="M10 10h4" />
      <path d="M10 14h4" />
      <path d="M10 18h4" />
  </symbol>
  <symbol id="icon-leaf" viewBox="0 0 24 24">
      <path d="M11 20A7 7 0 0 1 9.8 6.1C15.5 5 17 4.48 19 2c1 2 2 4.18 2 8 0 5.5-4.78 10-10 10Z" />
      <path d="M2 21c0-3 1.85-5.36 5.08-6C9.5 14.52 12 13 13 12" />
  </symbol>
  <symbol id="icon-flag" viewBox="0 0 24 24">
      <path d="M4 15s1-1 4-1 5 2 8 2 4-1 4-1V3s-1 1-4 1-5-2-8-2-4 1-4 1z" />
      <line x1="4" x2="4" y1="22" y2="15" />
  </symbol>
  <symbol id="icon-building" viewBox="0 0 24 24">
      <rect width="16" height="20" x="4" y="2" rx="2" ry="2" />
      <path d="M9 22v-4h6v4" />
      <path d="M8 6h.01" />
      <path d="M16 6h.01" />
      <path d="M12 6h.01" />
      <path d="M12 10h.01" />
      <path d="M12 14h.01" />
      <path d="M16 10h.01" />
      <path d="M16 14h.01" />
      <path d="M8 10h.01" />
      <path d="M8 14h.01" />
  </symbol>
  <symbol id="icon-facebook" viewBox="0 0 24 24">
      <path d="M18 2h-3a5 5 0 0 0-5 5v3H7v4h3v8h4v-8h3l1-4h-4V7a1 1 0 0 1 1-1h3z" />
  </symbol>
  <symbol id="icon-instagram" viewBox="0 0 24 24">
      <rect width="20" height="20" x="2" y="2" rx="5" ry="5" />
      <path d="M16 11.37A4 4 0 1 1 12.63 8 4 4 0 0 1 16 11.37z" />
      <line x1="17.5" x2="17.51" y1="6.5" y2="6.5" />
  </symbol>
  <symbol id="icon-linkedin" viewBox="0 0 24 24">
      <path d="M16 8a6 6 0 0 1 6 6v7h-4v-7a2 2 0 0 0-2-2 2 2 0 0 0-2 2v7h-4v-7a6 6 0 0 1 6-6z" />
      <rect width="4" height="12" x="2" y="9" />
      <circle cx="4" cy="4" r="2" />
  </symbol>
  <symbol id="icon-youtube" viewBox="0 0 24 24">
      <path d="M2.5 17a24.12 24.12 0 0 1 0-10 2 2 0 0 1 1.4-1.4 49.56 49.56 0 0 1 16.2 0A2 2 0 0 1 21.5 7a24.12 24.12 0 0 1 0 10 2 2 0 0 1-1.4 1.4 49.55 49.55 0 0 1-16.2 0A2 2 0 0 1 2.5 17" />
      <path d="m10 15 5-3-5-3z" />
  </symbol>
  <symbol id="icon-menu" viewBox="0 0 24 24">
      <path d="M4 12h16" />
      <path d="M4 6h16" />
      <path d="M4 18h16" />
  </symbol>
  <symbol id="icon-x" viewBox="0 0 24 24">
      <path d="M18 6 6 18" />
      <path d="m6 6 12 12" />
  </symbol>
  <symbol id="icon-check" viewBox="0 0 24 24">
      <path d="M20 6 9 17l-5-5" />
  </symbol>
  <symbol id="icon-clock" viewBox="0 0 24 24">
      <circle cx="12" cy="12" r="10" />
      <polyline points="12 6 12 12 16 14" />
  </symbol>
  <symbol id="icon-download" viewBox="0 0 24 24" fill="none" stroke="currentColor" stroke-width="2" stroke-linecap="round" stroke-linejoin="round">
      <path d="M12 15V3" />
      <path d="m7 10 5 5 5-5" />
      <path d="M21 15v4a2 2 0 0 1-2 2H5a2 2 0 0 1-2-2v-4" />
  </symbol>
  <symbol id="icon-crown" viewBox="0 0 24 24">
      <path d="M11.562 3.266a.5.5 0 0 1 .876 0L15.39 8.87a1 1 0 0 0 1.516.294L21.183 5.5a.5.5 0 0 1 .798.519l-2.834 10.246a1 1 0 0 1-.956.734H5.81a1 1 0 0 1-.957-.734L2.02 6.019a.5.5 0 0 1 .798-.519l4.277 3.664a1 1 0 0 0 1.516-.294z" />
      <path d="M5 21h14" />
  </symbol>
  <symbol id="icon-bed-double" viewBox="0 0 24 24">
      <path d="M2 20v-8a2 2 0 0 1 2-2h16a2 2 0 0 1 2 2v8" />
      <path d="M4 10V6a2 2 0 0 1 2-2h12a2 2 0 0 1 2 2v4" />
      <path d="M12 4v6" />
      <path d="M2 18h20" />
  </symbol>
  <symbol id="icon-ruler" viewBox="0 0 24 24">
      <path d="M21.3 15.3a2.4 2.4 0 0 1 0 3.4l-2.6 2.6a2.4 2.4 0 0 1-3.4 0L2.7 8.7a2.41 2.41 0 0 1 0-3.4l2.6-2.6a2.41 2.41 0 0 1 3.4 0z" />
      <path d="m14.5 12.5 2-2" />
      <path d="m11.5 9.5 2-2" />
      <path d="m8.5 6.5 2-2" />
      <path d="m17.5 15.5 2-2" />
  </symbol>
  <symbol id="icon-indian-rupee" viewBox="0 0 24 24">
      <path d="M6 3h12" />
      <path d="M6 8h12" />
      <path d="m6 13 8.5 8" />
      <path d="m6 13h9" />
      <path d="M6 18h6" />
  </symbol>
  <symbol id="icon-key-round" viewBox="0 0 24 24">
      <path d="M2 18v3c0 .6.4 1 1 1h3" />
      <path d="M15 6c0-3.3-2.7-6-6-6S3 2.7 3 6s2.7 6 6 6 6-2.7 6-6z" />
      <circle cx="9" cy="6" r="1" />
  </symbol>
</svg>
